# xmcd
#
# Track frame offsets: 
#        150
#        15008
#        30649
#        56785
#        72031
#        91102
#        100921
#        111269
#        138790
#        160429
#
# Disc length: 2338 seconds
#
# Revision: 0
# Processed by: cddbd v1.5.2PL0 Copyright (c) Steve Scherf et al.
# Submitted via: ExactAudioCopy v0.99pb3
#
DISCID=7409200a
DTITLE=Mississippi Marvel - The World Must Never Know
DYEAR=2008
DGENRE=Blues
TTITLE0=Laundromat Blues
TTITLE1=44 Blues
TTITLE2=Waterboy, Waterboy
TTITLE3=Kankakee
TTITLE4=Everything's Gonna Be Alright
TTITLE5=Catfish Blues
TTITLE6=Stoop Down, Mama
TTITLE7=Feel Like Layin' Down
TTITLE8=Hard Pill To Swallow
TTITLE9=No Mail Blues
EXTD=
EXTT0=
EXTT1=
EXTT2=
EXTT3=
EXTT4=
EXTT5=
EXTT6=
EXTT7=
EXTT8=
EXTT9=
PLAYORDER=
